<?xml version="1.0" standalone="no"?>
<!DOCTYPE svg PUBLIC "-//W3C//DTD SVG 20010904//EN"
 "http://www.w3.org/TR/2001/REC-SVG-20010904/DTD/svg10.dtd">
<svg version="1.0" xmlns="http://www.w3.org/2000/svg"
 width="1200.000000pt" height="1200.000000pt" viewBox="0 0 1200.000000 1200.000000"
 preserveAspectRatio="xMidYMid meet">
<metadata>
Created by potrace 1.11, written by Peter Selinger 2001-2013
</metadata>
<g transform="translate(0.000000,1200.000000) scale(0.100000,-0.100000)"
fill="#000000" stroke="none">
<path d="M5099 11996 c-3 -3 -29 -8 -59 -11 -48 -6 -99 -15 -166 -30 -12 -3
-40 -11 -63 -19 -22 -9 -41 -12 -41 -9 0 4 -5 2 -12 -5 -7 -7 -18 -12 -26 -12
-20 0 -190 -81 -265 -127 -430 -260 -705 -729 -720 -1225 l-2 -57 -1145 0
c-630 0 -1163 -3 -1185 -6 -38 -5 -51 -8 -103 -19 -139 -30 -305 -140 -413
-273 -62 -76 -134 -247 -144 -342 -3 -25 -5 -1940 -5 -4256 -1 -4178 0 -4211
19 -4288 26 -98 72 -196 127 -269 49 -63 172 -178 191 -178 7 0 13 -3 13 -7 0
-11 146 -79 192 -89 10 -2 28 -7 40 -10 13 -3 55 -9 94 -13 97 -11 7626 -10
7678 1 79 16 91 19 134 34 227 76 408 264 479 498 8 27 18 59 21 70 4 12 8
387 9 834 l4 812 -378 -2 -378 -3 0 -742 c0 -408 -3 -744 -6 -748 -7 -6 -7479
-8 -7486 -2 -9 9 -3 6731 6 6736 5 3 1691 6 3747 6 l3739 -1 0 -1122 c0 -617
2 -1122 5 -1123 3 0 173 -1 378 -2 l372 -2 -2 1940 c-4 2175 4 1975 -78 2140
-119 242 -338 393 -610 421 -19 2 -547 4 -1172 4 l-1138 1 -2 62 c-2 77 -3 90
-13 152 -79 526 -422 969 -905 1168 -93 39 -239 82 -310 93 -25 3 -56 9 -70
11 -34 7 -345 14 -351 9z m286 -766 c252 -46 474 -237 563 -484 33 -89 42
-141 47 -261 2 -44 4 -82 5 -85 2 -3 2 -8 2 -11 -3 -18 39 -142 66 -200 91
-193 295 -364 502 -419 25 -7 54 -14 65 -17 11 -3 225 -6 475 -8 250 -1 471
-5 490 -9 196 -38 376 -153 498 -318 78 -106 138 -259 145 -372 l2 -41 -2999
-3 -2998 -2 6 62 c14 145 48 252 109 347 118 183 269 280 507 327 19 4 247 8
505 9 259 2 481 6 495 9 14 4 36 8 50 10 25 4 113 36 160 59 140 66 292 225
351 365 11 26 24 56 29 67 6 11 12 35 15 54 3 19 8 38 10 41 3 4 7 43 10 86
15 203 17 215 52 314 94 263 340 457 618 487 28 3 52 7 54 9 5 5 106 -5 166
-16z"/>
<path d="M2249 7313 c0 -101 -1 -266 -1 -368 0 -102 2 -188 5 -191 4 -4 3483
-8 3708 -5 l36 1 0 374 -1 373 -1873 0 -1873 0 -1 -184z"/>
<path d="M7265 6574 c-121 -90 -227 -170 -235 -177 -8 -7 -85 -64 -170 -127
-85 -63 -162 -121 -170 -127 -8 -7 -274 -206 -590 -443 -316 -237 -582 -436
-590 -443 -9 -7 -239 -180 -513 -385 l-498 -373 28 -23 c15 -12 163 -124 328
-247 165 -123 305 -228 310 -232 8 -7 833 -626 953 -715 109 -81 460 -345 472
-355 8 -6 121 -91 250 -187 129 -96 240 -178 245 -183 6 -4 37 -28 70 -53 33
-25 67 -50 75 -57 8 -7 49 -37 90 -67 41 -30 80 -58 85 -63 67 -51 88 -67 90
-67 1 0 2 332 3 738 0 405 1 742 1 748 1 9 478 12 1834 12 1007 0 1850 1 1873
1 l41 1 -1 748 -1 747 -1850 2 c-1017 1 -1861 2 -1875 2 l-25 1 1 745 c1 410
-2 745 -5 745 -3 0 -105 -75 -226 -166z"/>
<path d="M2249 5964 c-1 -43 -1 -291 0 -531 l1 -188 727 2 c401 1 738 2 749 2
l22 1 -2 373 -1 372 -747 1 -748 1 -1 -33z"/>
<path d="M2249 4391 c-2 -379 0 -633 4 -638 4 -3 340 -5 749 -6 l743 0 2 375
1 375 -749 0 -749 0 -1 -106z"/>
<path d="M2253 2988 c-4 -8 -7 -550 -4 -713 l1 -30 1103 2 c606 1 1112 2 1123
2 l21 1 -1 373 -1 372 -1118 1 c-678 0 -1120 -3 -1124 -8z"/>
</g>
</svg>
